HIERARCHY
ROOT Hips
{
	OFFSET -0.001795 -0.223333 0.028219
	CHANNELS 6 Xposition Yposition Zposition Zrotation Yrotation Xrotation 
	JOINT LeftUpLeg
	{
		OFFSET 0.069520 -0.091406 -0.006815
		CHANNELS 3 Zrotation Yrotation Xrotation
		JOINT LeftLeg
		{
			OFFSET 0.034277 -0.375199 -0.004496
			CHANNELS 3 Zrotation Yrotation Xrotation
			JOINT LeftFoot
			{
				OFFSET -0.013596 -0.397961 -0.043693
				CHANNELS 3 Zrotation Yrotation Xrotation
				JOINT LeftToe
				{
					OFFSET 0.026358 -0.055791 0.119288
					CHANNELS 3 Zrotation Yrotation Xrotation
					End Site
					{
						OFFSET 0.000000 0.000000 0.000000
					}
				}
			}
		}
	}
	JOINT RightUpLeg
	{
		OFFSET -0.067670 -0.090522 -0.004320
		CHANNELS 3 Zrotation Yrotation Xrotation
		JOINT RightLeg
		{
			OFFSET -0.038290 -0.382569 -0.008850
			CHANNELS 3 Zrotation Yrotation Xrotation
			JOINT RightFoot
			{
				OFFSET 0.015774 -0.398415 -0.042312
				CHANNELS 3 Zrotation Yrotation Xrotation
				JOINT RightToe
				{
					OFFSET -0.025372 -0.048144 0.123348
					CHANNELS 3 Zrotation Yrotation Xrotation
					End Site
					{
						OFFSET 0.000000 0.000000 0.000000
					}
				}
			}
		}
	}
	JOINT Spine
	{
		OFFSET -0.002533 0.108963 -0.026696
		CHANNELS 3 Zrotation Yrotation Xrotation
		JOINT Spine1
		{
			OFFSET 0.005487 0.135180 0.001092
			CHANNELS 3 Zrotation Yrotation Xrotation
			JOINT Spine2
			{
				OFFSET 0.001457 0.052922 0.025425
				CHANNELS 3 Zrotation Yrotation Xrotation
				JOINT Neck
				{
					OFFSET -0.002778 0.213870 -0.042857
					CHANNELS 3 Zrotation Yrotation Xrotation
					JOINT Head
					{
						OFFSET 0.005152 0.064970 0.051349
						CHANNELS 3 Zrotation Yrotation Xrotation
						End Site
						{
							OFFSET 0.000000 0.000000 0.000000
						}
					}
				}
				JOINT LeftShoulder
				{
					OFFSET 0.078845 0.121749 -0.034090
					CHANNELS 3 Zrotation Yrotation Xrotation
					JOINT LeftArm
					{
						OFFSET 0.090977 0.030469 -0.008868
						CHANNELS 3 Zrotation Yrotation Xrotation
						JOINT LeftForeArm
						{
							OFFSET 0.259612 -0.012772 -0.027456
							CHANNELS 3 Zrotation Yrotation Xrotation
							JOINT LeftHand
							{
								OFFSET 0.249234 0.008986 -0.001171
								CHANNELS 3 Zrotation Yrotation Xrotation
								End Site
								{
									OFFSET 0.000000 0.000000 0.000000
								}
							}
						}
					}
				}
				JOINT RightShoulder
				{
					OFFSET -0.081759 0.118833 -0.038615
					CHANNELS 3 Zrotation Yrotation Xrotation
					JOINT RightArm
					{
						OFFSET -0.096012 0.032551 -0.009143
						CHANNELS 3 Zrotation Yrotation Xrotation
						JOINT RightForeArm
						{
							OFFSET -0.253742 -0.013329 -0.021401
							CHANNELS 3 Zrotation Yrotation Xrotation
							JOINT RightHand
							{
								OFFSET -0.255298 0.007772 -0.005559
								CHANNELS 3 Zrotation Yrotation Xrotation
								End Site
								{
									OFFSET 0.000000 0.000000 0.000000
								}
							}
						}
					}
				}
			}
		}
	}
}
MOTION
Frames: 15
Frame Time: 0.050000
0.000000 0.940711 0.000000 -0.354689 -2.721836 2.387743 3.589383 0.182958 3.605332 -6.058157 0.594154 -5.754725 4.467498 11.097997 8.806726 0.000000 0.000000 0.000000 -4.839708 0.123470 0.814078 1.973761 -0.260336 -2.932629 -3.762982 -12.334005 11.938494 0.000000 0.000000 0.000000 -1.221750 -0.000744 0.702963 5.333407 -0.974307 -20.634827 -0.590836 0.957017 27.292315 -0.817070 2.033213 -28.324447 0.000000 0.000000 0.000000 -33.175514 0.451386 -2.255457 -46.574547 -6.475665 -5.386763 -3.509990 -22.331337 1.847218 0.000000 0.000000 0.000000 25.565214 5.663136 1.659574 50.096886 6.086365 -4.634012 -3.185878 23.757950 0.415747 0.000000 0.000000 0.000000 
0.000036 0.940249 0.000796 -0.450093 -4.254020 3.110555 3.555893 0.181930 3.411502 -6.189163 0.615504 -6.432285 5.170854 12.251124 9.151657 0.000000 0.000000 0.000000 -4.911543 0.221293 -0.464615 2.001637 -0.243925 -2.415237 -3.162327 -11.302496 11.506810 0.000000 0.000000 0.000000 -1.017857 0.036189 -0.446864 5.051860 -0.935003 -20.480587 -0.662779 1.922750 27.557403 -0.723453 1.996567 -28.462584 0.000000 0.000000 0.000000 -33.003273 1.294344 -2.806067 -47.104312 -6.309413 -5.529510 -3.575988 -22.855084 1.934133 0.000000 0.000000 0.000000 25.207565 5.501134 1.566064 51.258806 5.336126 -5.043566 -2.734421 25.884563 0.573606 0.000000 0.000000 0.000000 
0.000065 0.940184 0.001185 -0.183338 -4.129238 3.375531 3.402556 0.118377 2.420972 -6.407361 0.650321 -5.222588 5.196894 12.269653 8.921937 0.000000 0.000000 0.000000 -5.314671 0.270375 -1.082523 2.215126 -0.247519 -1.777231 -3.301875 -11.504802 11.317105 0.000000 0.000000 0.000000 -0.691563 0.038074 -0.622831 4.219586 -0.708293 -20.474964 -0.511203 1.208656 27.622165 -1.334858 2.237589 -28.949391 0.000000 0.000000 0.000000 -32.102883 1.138585 -2.317629 -47.489159 -6.701991 -5.491591 -3.610902 -22.725764 1.946631 0.000000 0.000000 0.000000 25.087015 6.112211 1.695697 51.271518 5.532849 -4.879813 -2.938167 25.481258 0.481214 0.000000 0.000000 0.000000 
-0.000069 0.939739 0.001485 -0.076226 -4.768157 3.615740 3.275541 0.121664 2.357174 -6.530389 0.665920 -5.446156 5.485502 12.737457 9.028534 0.000000 0.000000 0.000000 -5.503634 0.323723 -1.813301 2.238495 -0.232631 -1.108490 -3.113293 -11.125296 10.907590 0.000000 0.000000 0.000000 -0.974652 0.054264 -0.924492 4.627620 -0.791192 -20.949720 -0.667171 1.416098 28.082750 -1.579566 2.333344 -28.839314 0.000000 0.000000 0.000000 -32.608730 1.625913 -2.590161 -47.340535 -6.397801 -5.657188 -4.248435 -23.478907 2.172359 0.000000 0.000000 0.000000 25.168768 6.500370 1.873003 51.450921 4.868329 -5.183885 -2.727242 27.121185 0.565913 0.000000 0.000000 0.000000 
-0.000320 0.940126 0.001669 0.003646 -4.740655 3.517128 3.403532 0.105252 2.158378 -6.863192 0.703815 -4.902427 5.458865 12.698542 9.075288 0.000000 0.000000 0.000000 -5.574413 0.321118 -1.746536 2.242445 -0.231304 -1.016577 -3.113701 -11.138181 10.970381 0.000000 0.000000 0.000000 -0.906007 0.038612 -0.519247 4.572891 -0.802499 -20.610261 -0.681224 1.378116 27.504239 -1.847329 2.483285 -28.980596 0.000000 0.000000 0.000000 -32.116908 1.451922 -2.443883 -47.616674 -6.099814 -5.726199 -4.953963 -24.526831 2.428311 0.000000 0.000000 0.000000 25.492202 6.382442 1.755338 50.940795 4.855661 -5.070235 -2.311488 27.434332 0.651693 0.000000 0.000000 0.000000 
-0.000505 0.940360 0.001845 0.125954 -4.545705 3.686402 3.343781 0.098945 2.088055 -6.929418 0.699331 -5.144138 5.328138 12.506037 9.248530 0.000000 0.000000 0.000000 -5.762310 0.334033 -1.899817 2.393769 -0.244908 -1.012808 -3.204892 -11.309865 11.061827 0.000000 0.000000 0.000000 -1.256042 0.048700 -0.626460 4.557699 -0.771854 -20.896361 -0.522138 1.104903 27.752782 -1.994222 2.533640 -28.915018 0.000000 0.000000 0.000000 -31.783506 1.592135 -2.437853 -47.776658 -5.995634 -5.816055 -5.884002 -25.503016 2.760842 0.000000 0.000000 0.000000 25.264409 6.429676 1.752440 50.887942 4.597416 -5.184341 -1.792837 28.217219 0.787856 0.000000 0.000000 0.000000 
-0.000615 0.940704 0.002005 0.125883 -4.511084 3.623358 3.480512 0.087473 1.967545 -7.141472 0.724444 -4.799354 5.302407 12.469364 9.291937 0.000000 0.000000 0.000000 -5.730135 0.326700 -1.792735 2.355353 -0.242724 -1.053789 -3.196048 -11.315597 11.171297 0.000000 0.000000 0.000000 -1.264556 0.045176 -0.521820 4.602797 -0.804060 -20.610908 -0.672461 1.093521 27.548149 -1.683969 2.360569 -28.640628 0.000000 0.000000 0.000000 -31.833988 1.601888 -2.465630 -47.629390 -5.769588 -5.867756 -6.499041 -26.139325 2.977577 0.000000 0.000000 0.000000 25.371196 6.701865 1.913467 50.715270 4.743508 -5.087236 -1.731031 28.730100 0.814661 0.000000 0.000000 0.000000 
-0.000620 0.940833 0.002183 0.076933 -4.505797 3.659704 3.362297 0.081752 1.841509 -6.838926 0.703620 -4.623071 5.339919 12.527054 9.243803 0.000000 0.000000 0.000000 -5.685601 0.328958 -1.858189 2.371983 -0.242773 -0.980963 -3.192457 -11.319028 11.215637 0.000000 0.000000 0.000000 -1.369037 0.052177 -0.680963 4.575702 -0.802011 -20.535760 -0.592650 1.007915 27.751161 -1.665109 2.319299 -28.102760 0.000000 0.000000 0.000000 -31.744210 1.453760 -2.306444 -47.485544 -5.766864 -5.887738 -6.815401 -26.809393 3.143755 0.000000 0.000000 0.000000 25.227540 6.851115 1.992665 50.690766 4.789843 -5.086234 -1.520100 28.760729 0.862170 0.000000 0.000000 0.000000 
-0.000572 0.940887 0.002427 0.117473 -4.355751 3.681639 3.210705 0.086036 1.867287 -6.624642 0.681174 -4.715799 5.274046 12.424112 9.244685 0.000000 0.000000 0.000000 -5.763921 0.332453 -1.916286 2.452071 -0.247970 -0.850428 -3.267631 -11.445151 11.225216 0.000000 0.000000 0.000000 -1.439549 0.059403 -0.880984 4.579374 -0.809148 -20.408883 -0.559815 1.036045 27.851369 -1.574251 2.278272 -27.781759 0.000000 0.000000 0.000000 -31.569782 1.472486 -2.353467 -47.663117 -5.961972 -5.823120 -7.208382 -26.904628 3.248545 0.000000 0.000000 0.000000 25.192185 6.755709 1.983834 50.569163 5.045462 -4.993938 -1.593741 28.524558 0.843429 0.000000 0.000000 0.000000 
-0.000500 0.941019 0.002691 0.164756 -3.998112 3.829613 3.029407 0.076296 1.711750 -6.327820 0.649701 -4.769590 5.124373 12.188582 9.231314 0.000000 0.000000 0.000000 -5.814583 0.337603 -2.047722 2.505107 -0.253029 -0.769966 -3.436288 -11.741784 11.316608 0.000000 0.000000 0.000000 -1.472332 0.075516 -1.384029 4.609650 -0.822490 -20.226973 -0.717358 0.928431 28.068924 -1.541964 2.264749 -27.367641 0.000000 0.000000 0.000000 -31.337907 1.312081 -2.260689 -47.906914 -6.032116 -5.824723 -7.225579 -27.049388 3.272227 0.000000 0.000000 0.000000 25.195913 6.846212 2.099159 50.615005 5.033565 -5.036291 -1.918852 28.288516 0.771342 0.000000 0.000000 0.000000 
-0.000434 0.940987 0.002966 0.218243 -3.495212 3.857663 2.999233 0.077449 1.772607 -6.274679 0.633215 -4.989909 4.873176 11.790072 9.195915 0.000000 0.000000 0.000000 -5.879817 0.327518 -1.924200 2.601157 -0.265953 -0.860158 -3.661158 -12.122644 11.401464 0.000000 0.000000 0.000000 -1.646453 0.080064 -1.501148 4.613202 -0.814460 -20.207825 -0.692152 0.716743 28.136673 -1.516406 2.264550 -27.342212 0.000000 0.000000 0.000000 -31.374173 1.084877 -2.155886 -47.794729 -5.985022 -5.821764 -7.270713 -27.265240 3.302669 0.000000 0.000000 0.000000 25.229379 6.686626 2.050182 50.636047 4.900133 -5.110538 -2.084311 27.882878 0.728753 0.000000 0.000000 0.000000 
-0.000358 0.940989 0.003232 0.206806 -3.093255 3.865934 2.876508 0.077990 1.771508 -5.957624 0.602047 -5.038638 4.708971 11.521727 9.096368 0.000000 0.000000 0.000000 -5.982530 0.319661 -1.808531 2.872796 -0.293404 -0.925924 -3.827109 -12.405938 11.503001 0.000000 0.000000 0.000000 -1.783319 0.086430 -1.710532 4.769024 -0.854709 -20.126352 -0.852144 0.478269 28.275893 -1.334688 2.160678 -27.285614 0.000000 0.000000 0.000000 -31.365345 1.149150 -2.203929 -47.664745 -6.118795 -5.770926 -7.335458 -27.265415 3.317994 0.000000 0.000000 0.000000 25.276805 6.651625 2.043262 50.764189 4.837847 -5.161969 -2.612330 27.290653 0.598606 0.000000 0.000000 0.000000 
-0.000284 0.940920 0.003490 0.186139 -2.940497 3.869735 2.747062 0.080079 1.763003 -5.666925 0.578428 -5.023624 4.667285 11.446315 9.002782 0.000000 0.000000 0.000000 -6.007842 0.313892 -1.711769 2.977388 -0.305062 -1.026764 -3.886832 -12.506840 11.541413 0.000000 0.000000 0.000000 -1.857733 0.090512 -1.851431 4.812845 -0.870090 -20.036327 -0.868394 0.425995 28.409914 -1.276332 2.130946 -27.198348 0.000000 0.000000 0.000000 -31.469866 0.916947 -2.065890 -47.513979 -6.127578 -5.762322 -7.059600 -27.191368 3.234798 0.000000 0.000000 0.000000 25.470072 6.612163 2.038134 50.773113 4.675344 -5.245948 -3.191329 27.015743 0.471484 0.000000 0.000000 0.000000 
-0.000152 0.940931 0.003676 0.177906 -2.812786 3.824954 2.704539 0.074599 1.675498 -5.562169 0.571872 -4.780656 4.636699 11.384643 8.896814 0.000000 0.000000 0.000000 -5.948266 0.304648 -1.597601 2.895433 -0.299536 -1.080250 -3.938604 -12.595720 11.575221 0.000000 0.000000 0.000000 -1.974658 0.090937 -1.862061 5.024605 -0.927196 -20.015096 -1.001933 0.442776 28.526091 -0.919695 1.943218 -27.163342 0.000000 0.000000 0.000000 -31.478696 1.031658 -2.187605 -47.230773 -6.303111 -5.669610 -7.083013 -26.899607 3.193562 0.000000 0.000000 0.000000 25.672284 6.528134 2.025740 50.544590 4.817617 -5.193136 -3.477384 26.386776 0.403216 0.000000 0.000000 0.000000 
0.000112 0.940945 0.003807 0.157859 -2.510083 3.775963 2.688454 0.073178 1.671601 -5.457669 0.560705 -4.712652 4.510275 11.172465 8.799994 0.000000 0.000000 0.000000 -5.986635 0.294471 -1.459062 3.030020 -0.314074 -1.122537 -4.059528 -12.803050 11.663979 0.000000 0.000000 0.000000 -2.057721 0.090250 -1.861436 5.039152 -0.924929 -20.009500 -1.030494 0.221396 28.690441 -0.837187 1.895553 -27.359024 0.000000 0.000000 0.000000 -31.585069 1.210302 -2.300446 -47.227462 -6.396339 -5.656695 -6.569802 -26.608958 3.040911 0.000000 0.000000 0.000000 25.600476 6.496936 2.004144 50.770923 4.709552 -5.267287 -3.870246 25.964636 0.316521 0.000000 0.000000 0.000000 
